<!-- icon666.com - MILLIONS OF FREE VECTOR ICONS --><svg id="Layer_1" viewBox="0 0 64 64" xmlns="http://www.w3.org/2000/svg"><path d="m58 2h-42c-1.597 0-3.104.621-4.251 1.757-1.128 1.14-1.749 2.646-1.749 4.243v18c0 .553.447 1 1 1s1-.447 1-1v-18c0-1.066.416-2.073 1.163-2.829.764-.755 1.771-1.171 2.837-1.171h37.531c-.986 1.107-1.531 2.513-1.531 4v21h-3.49c-1.824-7.578-8.628-13-16.51-13s-14.706 5.419-16.527 13h-6.303c-2.188 0-4.015 1.63-4.157 3.705-.088 1.159.335 2.298 1.16 3.122.756.757 1.761 1.173 2.827 1.173h1v14h-9c-.553 0-1 .447-1 1v4c0 1.597.621 3.104 1.757 4.251 1.14 1.128 2.646 1.749 4.243 1.749h42c3.309 0 6-2.691 6-6v-19h1c1.066 0 2.071-.416 2.827-1.173.825-.824 1.248-1.963 1.161-3.115-.144-2.082-1.971-3.712-4.158-3.712h-.83v-16h9c.553 0 1-.447 1-1v-4c0-3.309-2.691-6-6-6zm-49 33c-.532 0-1.034-.208-1.413-.587-.418-.418-.624-.972-.579-1.564.07-1.02 1.04-1.849 2.162-1.849h7.11c.48 0 .894-.342.982-.814 1.335-7.061 7.533-12.186 14.737-12.186 6.794 0 12.688 4.56 14.458 11h-.458c-1.274 0-2.439.474-3.355 1.278-1.216-4.751-5.521-8.278-10.645-8.278-5.992 0-10.871 4.817-10.989 10.781-.499 1.37-1.642 2.219-3.011 2.219zm27.8-5.4-6 8c-.174.232-.44.4-.8.4-.265 0-.519-.104-.707-.293l-3-3c-.391-.391-.391-1.023 0-1.414s1.023-.391 1.414 0l2.185 2.185 5.309-7.077c.331-.442.958-.53 1.399-.2.442.331.532.958.2 1.399zm18.03 1.4c1.122 0 2.092.829 2.163 1.855.044.586-.162 1.14-.58 1.558-.379.379-.881.587-1.413.587h-7.28c-.48 0-.894.342-.982.814-.532 2.813-1.86 5.406-3.841 7.498-.379.401-.362 1.034.039 1.414.537.491 1.217.169 1.414-.039 2.052-2.167 3.485-4.811 4.178-7.688h3.473v19c0 2.206-1.794 4-4 4h-37.541c.954-1.063 1.54-2.462 1.54-4v-19h3.49c1.824 7.578 8.628 13 16.51 13 2.989 0 5.929-.786 8.501-2.273.478-.276.642-.888.364-1.366-.275-.479-.887-.644-1.366-.364-2.268 1.311-4.86 2.004-7.499 2.004-6.794 0-12.688-4.56-14.458-11h.458c1.274 0 2.439-.474 3.355-1.278 1.216 4.751 5.521 8.278 10.645 8.278 5.992 0 10.871-4.817 10.989-10.781.499-1.37 1.642-2.219 3.011-2.219z" fill="#000000" style="fill: rgb(30, 174, 92);"></path><path d="m43 7h-22c-.553 0-1 .447-1 1s.447 1 1 1h22c.553 0 1-.447 1-1s-.447-1-1-1z" fill="#000000" style="fill: rgb(30, 174, 92);"></path><path d="m25 11c-.553 0-1 .447-1 1s.447 1 1 1h14c.553 0 1-.447 1-1s-.447-1-1-1z" fill="#000000" style="fill: rgb(30, 174, 92);"></path><path d="m25 51h-8c-.553 0-1 .447-1 1s.447 1 1 1h8c.553 0 1-.447 1-1s-.447-1-1-1z" fill="#000000" style="fill: rgb(30, 174, 92);"></path><path d="m25 55h-8c-.553 0-1 .447-1 1s.447 1 1 1h8c.553 0 1-.447 1-1s-.447-1-1-1z" fill="#000000" style="fill: rgb(30, 174, 92);"></path><path d="m38 52c0 .553.447 1 1 1h8c.553 0 1-.447 1-1s-.447-1-1-1h-8c-.553 0-1 .447-1 1z" fill="#000000" style="fill: rgb(30, 174, 92);"></path><path d="m47 55h-8c-.553 0-1 .447-1 1s.447 1 1 1h8c.553 0 1-.447 1-1s-.447-1-1-1z" fill="#000000" style="fill: rgb(30, 174, 92);"></path><circle cx="21" cy="12" r="1" fill="#000000" style="fill: rgb(30, 174, 92);"></circle><circle cx="43" cy="12" r="1" fill="#000000" style="fill: rgb(30, 174, 92);"></circle></svg>